<svg xmlns="http://www.w3.org/2000/svg" viewBox="0 0 728.69 297.92"><defs><style>.cls-1{fill:none;stroke:#fff;stroke-miterlimit:10;}.cls-2{font-size:42px;letter-spacing:0.11em;}.cls-2,.cls-3,.cls-4{fill:#fff;}.cls-2,.cls-3{font-family:Helvetica, Helvetica;}.cls-3{font-size:19px;letter-spacing:0.2em;}</style></defs><title>Asset 1</title><g id="Layer_2" data-name="Layer 2"><g id="Layer_2-2" data-name="Layer 2"><rect class="cls-1" x="0.5" y="0.5" width="727.69" height="296.92"/><text class="cls-2" transform="translate(285.63 158)">Gin Up</text><text class="cls-3" transform="translate(190.16 230.92)"><tspan xml:space="preserve">Discover .  Share  .  Explore  </tspan></text><path class="cls-4" d="M355.25,74.38a8.75,8.75,0,0,1,0-17.5,8.91,8.91,0,0,1,1.36.11,8.75,8.75,0,0,1-1.36,17.39Zm0-17.06a8.29,8.29,0,1,0,1.3.1A8.13,8.13,0,0,0,355.25,57.32Z"/><path class="cls-4" d="M372.4,63.1,372,63a8,8,0,0,0,0-1.76,9.62,9.62,0,0,0-1.24-4.19,8.57,8.57,0,0,0-4-3.51,8.15,8.15,0,0,0-5.86-.16,6.59,6.59,0,0,0-4,4l-.43-.09c.28-1.4,2-3.44,4.32-4.28a8.54,8.54,0,0,1,6.18.17,9,9,0,0,1,4.17,3.69,9.9,9.9,0,0,1,1.3,4.38A7.25,7.25,0,0,1,372.4,63.1Z"/><path class="cls-4" d="M369.24,79.42a8.4,8.4,0,0,1-4.06-1.06,8.57,8.57,0,0,1-3.05-2.91,10.75,10.75,0,0,1-1.19-3.37l.29-.42a12.54,12.54,0,0,0,1.27,3.55A8.19,8.19,0,0,0,365.39,78a7.93,7.93,0,0,0,4.27,1,8.22,8.22,0,0,0,7.74-9.2,8.22,8.22,0,0,0-1.34-3.5,8.08,8.08,0,0,0-2.72-2.55,8.11,8.11,0,0,0-9,.59c-.76.55-.72.51-.72.51v-.48a4.66,4.66,0,0,1,.43-.37,7.25,7.25,0,0,1,2.09-1.18,9.28,9.28,0,0,1,7.38.55A8.69,8.69,0,0,1,376.43,66a8.9,8.9,0,0,1,1.41,3.69,8.31,8.31,0,0,1-4,8.24,8.44,8.44,0,0,1-4.19,1.46Z"/><path class="cls-1" d="M346.93,63.38l-1.65.47s-2.22.89-2.65,1.15-1.83,1-1.83,1L338,67.88l-2.17,1.45L334,70.69l-1.14.86s3.95-1.5,4.5-1.86,4.88-3,4.88-3,2.62-1.33,2.81-1.38-.47.74-.47.74-1.24,1.43-1.48,1.79-.9,1.28-1.12,1.62-.62,1-.62,1l2.22-1.93L345.23,67l1.27-1Z"/><path class="cls-1" d="M356.18,56.93a4.89,4.89,0,0,0-.93-2c-.58-.49-.63-.81-1.59-1.07s-3.72-.68-3.72-.68,2.82.66,3.38,1.23,1.3,1.52,1.3,1.52a12.71,12.71,0,0,0-3.52-.87,53,53,0,0,0-6.23,1.83l-7,2.35-3.33,1.2,6.07-1.26,6.88-1.85,4.59-.88a10.07,10.07,0,0,1,1.86-.06,2,2,0,0,1,.75.52Z"/><path class="cls-1" d="M357.55,55.25s-2.27-3.57-2.42-4.07-.28-.79-.28-.79,1.41,1.38,1.75,1.74,1.33,1.65,1.44,1.7a3.65,3.65,0,0,1,.54.42Z"/><path class="cls-1" d="M371.36,57.32s3-2.9,3.46-3.31a35.55,35.55,0,0,1,3.23-2c.32-.15,1.63-.7,1.79-.81s-1.45,1.9-1.45,1.9l-2.55,2.6S374.46,57,374,57.58s-1.41,1.86-1.41,1.86l-.35.51A16.6,16.6,0,0,0,371.36,57.32Z"/><path class="cls-1" d="M372.46,62.26s6.93-3,7.64-3.22,4.4-1.84,5.5-1.72a13.15,13.15,0,0,0,2.28,0l-8.54,3.38-4.73,2.07s5.28-.42,6.93-.3,3.38.3,3.38.3a30.31,30.31,0,0,1-4.27.89,43.28,43.28,0,0,1-4.52.38c-.89-.13-1.8-.19-1.8-.19l-.16-.12"/><path class="cls-1" d="M377.33,73.86s2.57.71,3.05.91l2.25,1s-3.62-.15-4.3-.21-1.72-.27-1.72-.27Z"/><path class="cls-1" d="M375.82,76.34s8.77,2.14,10,2.53,3.17,1.07,4.92,1.8a42.34,42.34,0,0,1,5.1,3,33.79,33.79,0,0,1-4.81-.92c-1.66-.53-8.95-2.75-8.95-2.75l-5.89-1.77-1.63-.74Z"/><path class="cls-1" d="M374.09,77.82a12.71,12.71,0,0,0,2.67,2c1.59.9,5.87,3.25,5.87,3.25s3.64,2.29,4,2.67.21.41.21.41a37.11,37.11,0,0,0-3.7-1.54,33,33,0,0,1-4-1.7A24.51,24.51,0,0,1,375.86,81c-.58-.46-2.12-1.61-2.12-1.61l-.76-.94Z"/><path class="cls-1" d="M358.87,73.6l-1.7,2a34.67,34.67,0,0,0-3.3,4.26c-.48.93-3.55,5.3-3.55,5.3a31.57,31.57,0,0,0-1.71,3.19,10,10,0,0,1-.7,1.67s3.56-4.19,4.48-5.38,3-4,3-4l3.3-4.84.78-1s0,1.39,0,2.54,0,3.67,0,3.67l.18,3.56a9.48,9.48,0,0,0,.93-2.79c.11-1.22.32-4.85.32-4.85V73.6l.1-1.06"/></g></g></svg>